<?xml version="1.0" encoding="UTF-8" standalone="no"?>
<!-- Created with Inkscape (http://www.inkscape.org/) -->

<svg
   width="670mm"
   height="510mm"
   viewBox="0 0 670 510"
   version="1.1"
   id="svg5"
   inkscape:version="1.2.2 (1:1.2.2+202212051550+b0a8486541)"
   sodipodi:docname="tb-logo-thin.svg"
   inkscape:export-filename="../../../../../Desktop/empty/tb-thin-grey.png"
   inkscape:export-xdpi="96"
   inkscape:export-ydpi="96"
   xmlns:inkscape="http://www.inkscape.org/namespaces/inkscape"
   xmlns:sodipodi="http://sodipodi.sourceforge.net/DTD/sodipodi-0.dtd"
   xmlns="http://www.w3.org/2000/svg"
   xmlns:svg="http://www.w3.org/2000/svg">
  <sodipodi:namedview
     id="namedview7"
     pagecolor="#ffffff"
     bordercolor="#000000"
     borderopacity="0.25"
     inkscape:showpageshadow="2"
     inkscape:pageopacity="0.0"
     inkscape:pagecheckerboard="0"
     inkscape:deskcolor="#d1d1d1"
     inkscape:document-units="mm"
     showgrid="false"
     inkscape:zoom="0.60113432"
     inkscape:cx="1662.69"
     inkscape:cy="839.24671"
     inkscape:window-width="3840"
     inkscape:window-height="2089"
     inkscape:window-x="0"
     inkscape:window-y="34"
     inkscape:window-maximized="1"
     inkscape:current-layer="layer1" />
  <defs
     id="defs2">
    <filter
       inkscape:collect="always"
       style="color-interpolation-filters:sRGB"
       id="filter1931"
       x="-0.0048543685"
       y="-0.003576201"
       width="1.0097087"
       height="1.0071524">
      <feGaussianBlur
         inkscape:collect="always"
         stdDeviation="0.71844385"
         id="feGaussianBlur1933" />
    </filter>
    <filter
       inkscape:collect="always"
       style="color-interpolation-filters:sRGB"
       id="filter1935"
       x="-0.0037144885"
       y="-0.0034800208"
       width="1.007429"
       height="1.00696">
      <feGaussianBlur
         inkscape:collect="always"
         stdDeviation="0.71844385"
         id="feGaussianBlur1937" />
    </filter>
  </defs>
  <g
     inkscape:label="Layer 1"
     inkscape:groupmode="layer"
     id="layer1">
    <path
       id="text1071-0"
       style="font-style:normal;font-variant:normal;font-weight:normal;font-stretch:normal;font-size:358.876px;font-family:Cardo;-inkscape-font-specification:'Cardo, Normal';font-variant-ligatures:normal;font-variant-caps:normal;font-variant-numeric:normal;font-variant-east-asian:normal;fill:#2d2d2d;fill-opacity:1;stroke-width:0.510267;filter:url(#filter1931)"
       d="m 465.21482,19.837203 c 0.80867,6.502533 1.61108,13.006064 2.3932,19.512185 27.92248,1.68942 50.70448,9.568598 68.33947,23.64482 20.04018,15.770797 30.06036,41.341622 30.06036,76.713372 0,19.82624 -7.43069,37.73806 -22.29196,53.73423 -14.6361,15.99618 -32.76247,23.9937 -54.37885,23.9937 h -83.0882 c -5.17892,0 -7.7684,-2.1397 -7.7684,-6.42038 V 58.479862 h -74.37227 c 4.1235,7.203998 6.62726,16.363116 7.49641,27.494646 V 442.50911 c 0,13.75642 -8.52593,24.52902 -25.54797,32.32902 4.72521,2.12205 9.67431,3.72779 14.66205,4.85711 9.72307,2.16964 19.85815,2.55192 29.92087,2.48984 3.83677,-0.20198 8.36575,-0.32145 11.1888,2.76681 2.87875,3.49797 2.11462,8.27705 2.1501,12.46413 0.2923,1.51917 0.10611,3.09652 -0.39156,4.57118 h 112.91541 c 35.12662,0 67.66402,-6.30765 97.61174,-18.92435 58.09404,-24.1069 87.14127,-66.91395 87.14127,-128.42035 0,-28.83815 -8.55656,-53.62092 -25.66952,-74.34834 -16.8878,-20.72744 -40.19315,-39.42746 -69.91569,-56.09953 0.45036,-0.2253 2.47691,-1.12597 6.07963,-2.70305 3.82791,-1.57709 8.33134,-4.05617 13.51028,-7.43563 33.32526,-21.40333 49.98802,-48.21334 49.98802,-80.43098 0,-71.439248 -56.67926,-109.368007 -170.03319,-113.787767 z M 403.54679,238.38839 h 53.70335 c 38.50418,0 70.25348,11.03988 95.24744,33.1191 25.21912,22.07922 37.82876,50.57909 37.82876,85.5003 0,34.69594 -11.70896,63.98501 -35.12671,87.86662 -23.41775,23.6563 -51.78947,35.48439 -85.11472,35.48439 -17.33816,0 -33.55057,-4.84369 -48.63701,-14.53151 -14.86126,-9.68782 -22.29194,-22.53004 -22.29194,-38.52619 V 242.1057 c 0,-2.47828 1.46362,-3.71731 4.39083,-3.71731 z" />
    <path
       id="text1071"
       style="font-style:normal;font-variant:normal;font-weight:normal;font-stretch:normal;font-size:360.981px;font-family:Cardo;-inkscape-font-specification:'Cardo, Normal';font-variant-ligatures:normal;font-variant-caps:normal;font-variant-numeric:normal;font-variant-east-asian:normal;fill:#2d2d2d;stroke-width:0.513257;filter:url(#filter1935)"
       d="m 450.99231,6.5546359 c -4.33137,0.2631062 -7.15873,4.0081821 -9.53159,7.2035271 -2.72038,3.338394 -6.84957,5.509128 -11.18449,5.572271 -8.30656,0.95402 -16.68343,0.22822 -25.02097,0.491167 -116.74158,0.04199 -233.48378,0.03771 -350.224712,-0.103093 -6.442851,-0.05626 -13.506969,-1.317492 -18.101873,-6.231189 -2.841243,-2.906763 -5.735694,-6.6625076 -10.131808,-6.9345437 -3.08453,0.066382 -4.893059,3.0589887 -5.707097,5.6903367 -1.840798,5.975189 -2.024182,12.233639 -2.860534,18.422837 -3.693902,31.6931 -7.571996,63.36647 -10.8925951,95.101771 0.2702446,3.38206 -0.7078402,6.98683 0.5196627,10.20872 2.2160904,1.13092 4.7909804,0.26916 7.1626004,0.52909 1.66651,-0.0826 2.879666,-1.47145 3.188424,-3.03511 1.666735,-4.71711 1.790489,-9.80845 3.276244,-14.5782 3.358103,-14.72045 6.103381,-29.974874 13.841181,-43.171326 6.367434,-10.749083 16.573827,-19.750666 28.930156,-22.663265 6.365016,-1.412396 12.915208,-0.437104 19.365794,-0.697606 37.736477,0.0011 75.478107,-0.02206 113.211627,0.05664 3.31198,0.542506 7.27416,1.428136 8.83427,4.78613 1.06049,6.400922 0.35803,12.970853 0.5573,19.442778 -10e-4,122.253039 0.0405,244.507749 -0.12802,366.760029 -1.00257,11.24429 -7.95545,21.20558 -16.7311,27.94832 -12.98451,10.53168 -29.69696,15.47407 -46.19321,16.52045 -7.11635,0.61985 -14.37611,0.13939 -21.40405,0.77572 -2.05176,1.29659 -1.10913,3.9591 -1.27136,5.94423 0.003,2.21844 -0.51946,4.74245 0.7517,6.70089 1.95883,1.3234 4.44352,0.38118 6.64114,0.65898 76.04439,0.009 152.0888,-0.008 228.13318,-0.0527 2.13097,-0.722 2.19853,-3.40366 1.83185,-5.25008 -0.12841,-2.52372 0.59031,-5.26471 -0.69084,-7.59461 -2.90164,-1.6182 -6.31179,-0.39816 -9.44655,-0.75156 -15.9401,0.0264 -32.3542,-1.85601 -46.75953,-9.12053 -10.99972,-5.49007 -21.06433,-13.95685 -26.17624,-25.3542 -3.58694,-8.2747 -2.65173,-17.4749 -2.72451,-26.24975 0.0403,-122.30336 0.033,-244.60675 0.11568,-366.90979 -0.53631,-3.176694 1.49533,-6.83225 4.86994,-7.245941 7.14352,-1.818556 14.57492,-0.857616 21.85577,-1.074936 37.85748,0.04253 75.72346,-0.07802 113.57555,0.138132 14.37646,2.949434 26.89317,13.409288 32.4969,26.958384 7.93775,16.357781 11.42254,34.347401 14.74339,52.086391 0.40784,1.90549 0.97218,4.34363 3.20083,4.80878 1.83894,0.43425 3.73107,-0.0823 5.60026,0.16562 1.29291,0.12455 3.01393,-0.40878 2.88485,-1.99512 0.0863,-2.30541 -0.12378,-4.61245 -0.0648,-6.91973 -0.44119,-12.29549 -2.67056,-24.57072 -3.84056,-36.863507 -3.01664,-25.38923 -5.85089,-50.805409 -9.22435,-76.148588 -0.74761,-2.865337 -1.40201,-6.583101 -4.58187,-7.7110958 -0.86564,-0.2895519 -1.78936,-0.3440496 -2.69574,-0.3147411 z" />
  </g>
</svg>
