<?xml version="1.0" encoding="UTF-8" standalone="no"?>
<!-- Created with Inkscape (http://www.inkscape.org/) -->

<svg
   width="700mm"
   height="510mm"
   viewBox="0 0 700 510"
   version="1.1"
   id="svg5"
   inkscape:version="1.2.2 (1:1.2.2+202212051550+b0a8486541)"
   sodipodi:docname="drawing-done.svg"
   inkscape:export-filename="tb-grey.png"
   inkscape:export-xdpi="96"
   inkscape:export-ydpi="96"
   xmlns:inkscape="http://www.inkscape.org/namespaces/inkscape"
   xmlns:sodipodi="http://sodipodi.sourceforge.net/DTD/sodipodi-0.dtd"
   xmlns="http://www.w3.org/2000/svg"
   xmlns:svg="http://www.w3.org/2000/svg">
  <sodipodi:namedview
     id="namedview7"
     pagecolor="#ffffff"
     bordercolor="#000000"
     borderopacity="0.25"
     inkscape:showpageshadow="2"
     inkscape:pageopacity="0.0"
     inkscape:pagecheckerboard="0"
     inkscape:deskcolor="#d1d1d1"
     inkscape:document-units="mm"
     showgrid="false"
     inkscape:zoom="0.51494764"
     inkscape:cx="2560.4545"
     inkscape:cy="562.19308"
     inkscape:window-width="3840"
     inkscape:window-height="2089"
     inkscape:window-x="0"
     inkscape:window-y="34"
     inkscape:window-maximized="1"
     inkscape:current-layer="layer1" />
  <defs
     id="defs2">
    <filter
       inkscape:collect="always"
       style="color-interpolation-filters:sRGB"
       id="filter1060"
       x="-0.004710388"
       y="-0.0036307833"
       width="1.0094208"
       height="1.0072616">
      <feGaussianBlur
         inkscape:collect="always"
         stdDeviation="0.73520896"
         id="feGaussianBlur1062" />
    </filter>
    <filter
       inkscape:collect="always"
       style="color-interpolation-filters:sRGB"
       id="filter1064"
       x="-0.0037724351"
       y="-0.0035389823"
       width="1.0075449"
       height="1.007078">
      <feGaussianBlur
         inkscape:collect="always"
         stdDeviation="0.73520896"
         id="feGaussianBlur1066" />
    </filter>
  </defs>
  <g
     inkscape:label="Layer 1"
     inkscape:groupmode="layer"
     id="layer1">
    <path
       id="text236-6"
       style="font-weight:bold;font-size:358.775px;font-family:Cardo;-inkscape-font-specification:'Cardo, Bold';fill:#2d2d2d;stroke-width:0.516218;filter:url(#filter1060);fill-opacity:1"
       inkscape:transform-center-x="490.02934"
       inkscape:transform-center-y="-131.45377"
       d="m 477.48876,45.557452 c 13.35971,0.618019 26.74534,2.349217 39.59288,6.15424 12.4831,3.846171 24.2068,11.080344 31.96027,21.750107 6.32518,8.622413 10.20633,18.815796 12.60348,29.172311 2.54725,11.69403 3.26023,23.73656 2.90204,35.67928 -0.69657,15.9279 -6.08449,31.6682 -15.50121,44.54968 -8.07691,10.90424 -18.9833,19.716 -31.46566,25.07841 -10.93979,4.76886 -22.98597,6.50576 -34.86127,6.21144 -17.16101,-0.0334 -34.32579,0.0665 -51.48445,-0.0496 -2.59853,-0.1077 -5.82594,-1.05234 -6.52132,-3.92411 -1.4016,-3.09123 -0.74558,-6.52198 -0.89044,-9.79582 0,-44.20708 0,-88.41418 0,-132.621215 -2.09406,-0.758105 -4.24353,-1.356028 -6.57189,-1.139382 -30.91649,0 -61.83297,0 -92.74945,0 3.7963,11.451748 2.81078,23.676528 2.95327,35.545127 -0.0117,112.62325 0.0242,225.24696 -0.0176,337.86994 -0.0954,6.48536 -2.53554,12.8659 -6.8106,17.74647 -1.66398,2.04071 -3.50912,3.93303 -5.5026,5.65121 7.66528,5.94864 16.88659,9.68196 26.08783,12.07106 6.61578,1.7168 13.30055,3.02087 20.09369,3.35834 5.70926,0.29739 11.64084,0.39943 17.42239,0.1676 3.99373,0.2113 7.89135,3.26762 8.25665,7.39824 0.88042,4.88695 0.0505,9.87047 0.44835,14.78889 -0.0176,0.69971 -0.12428,1.3962 -0.29104,2.07542 39.41053,-0.0201 78.82184,0.0404 118.23187,-0.0302 10.59747,-0.16428 21.10393,-0.76613 31.6053,-2.13162 10.71992,-1.23773 21.42621,-3.29232 31.85944,-5.66903 12.94291,-3.23703 25.688,-7.40785 37.8575,-12.89422 11.62616,-5.4178 22.83018,-11.83477 33.11465,-19.51513 11.27076,-8.60741 21.21083,-19.28119 28.91431,-31.20863 7.12279,-11.15259 12.54054,-23.45766 16.08752,-36.12254 4.01532,-14.88663 5.27499,-30.33203 4.82182,-45.67883 -0.48209,-13.91773 -3.4009,-27.77245 -8.94996,-40.56358 -5.56239,-13.5662 -13.71087,-25.9727 -23.45532,-36.89513 -9.14329,-10.48437 -19.79241,-19.55754 -31.13843,-27.57079 -10.94989,-7.90106 -22.48275,-15.12525 -34.30422,-21.74359 6.30786,-2.93393 12.86156,-5.39609 18.74459,-9.1684 7.16914,-4.43703 13.94723,-9.46722 20.42256,-14.90692 7.27776,-6.43368 13.6224,-13.70584 18.91903,-21.8351 4.64342,-7.2678 8.17127,-15.37426 10.65496,-23.6564 3.05181,-10.57545 3.35319,-21.88674 2.44661,-32.81126 -0.88359,-10.80895 -3.28865,-21.573624 -7.87346,-31.437394 C 650.26038,79.238118 643.47025,69.565173 635.15527,61.704845 624.26156,51.481759 611.50354,43.25867 597.66646,37.61596 c -8.24926,-3.303496 -16.97443,-6.35919 -25.57478,-8.7838 -17.79163,-5.001298 -36.00942,-7.960474 -54.43093,-9.528086 -14.35575,-0.995169 -28.77294,-1.816391 -43.23522,-1.98756 1.02127,9.413629 2.04253,18.827251 3.0638,28.24088 z M 429.97349,243.53321 c 14.1866,0.0497 28.37547,-0.10224 42.56064,0.081 19.80761,0.51075 39.65742,4.54962 57.66808,12.93137 17.17496,8.06151 32.04292,21.08326 41.90352,37.32931 9.04027,14.61683 14.25504,31.39342 16.10398,48.43011 1.78969,16.40575 1.32729,33.07995 -1.43054,49.35129 -2.98751,16.77166 -8.33122,33.46151 -18.14511,47.55051 -10.87138,16.06956 -28.11381,27.56556 -47.04233,31.70749 -11.56165,2.52 -23.61501,3.07098 -35.32129,1.24613 -8.24149,-1.26944 -16.28535,-3.73547 -23.78354,-7.39547 -9.48908,-4.48452 -18.24147,-10.67815 -25.08612,-18.68286 -5.67285,-6.43273 -10.16443,-14.09316 -11.85745,-22.57351 -1.62375,-7.42011 -0.85361,-15.05835 -1.03434,-22.5863 0.0176,-51.12134 -0.0355,-102.24543 0.0267,-153.36503 -0.0347,-1.67255 0.87115,-3.39017 2.63495,-3.70099 0.9084,-0.26037 1.86262,-0.31656 2.80288,-0.32308 z" />
    <path
       id="text236"
       style="font-weight:bold;font-size:360.691px;font-family:Cardo;-inkscape-font-specification:'Cardo, Bold';fill:#2d2d2d;stroke-width:0.518975;filter:url(#filter1064);fill-opacity:1"
       d="m 32.905378,4.821384 c -4.551714,0.5446477 -7.469315,5.0328193 -7.9707,9.296152 C 23.66877,20.535547 23.602707,27.308674 22.611879,33.845541 19.045998,67.58937 15.247472,101.30631 12.0895,135.07837 c 0.176376,3.02294 -0.525071,6.11338 0.299215,9.08015 2.313805,0.72139 4.758137,-0.12565 7.129011,0.17911 2.092906,-0.0589 4.632156,0.66272 6.35559,-0.82587 1.591814,-2.97596 1.247217,-6.51031 2.244347,-9.67915 2.690029,-12.89337 4.76797,-25.93432 8.284216,-38.6386 3.516598,-11.443472 9.65242,-22.649933 19.63808,-29.649589 6.883119,-4.788749 15.465263,-6.920871 23.796129,-6.180325 35.978972,0.06848 71.963032,-0.05053 107.938762,0.159402 3.17719,0.576285 6.41783,1.347931 9.10751,3.22382 1.92326,7.23429 0.73241,14.766372 1.09743,22.140768 -0.0257,118.607774 0.0622,237.218224 -0.17755,355.824374 -0.90827,11.27075 -7.86311,21.30523 -16.76665,27.92821 -12.63076,9.81635 -28.41537,14.57575 -44.06265,16.8043 -8.30267,1.08615 -16.70176,0.81478 -25.04568,1.10227 -1.32846,0.86865 -0.51912,2.77666 -0.71641,4.08886 0.0371,4.01176 -0.2784,8.07879 0.25151,12.05315 1.25957,1.15202 3.18298,0.42521 4.72903,0.62549 45.68854,-0.0782 91.37737,-0.01 137.06603,-0.0408 41.33797,0.006 82.67798,-0.0558 124.01466,-0.0246 1.19856,0.21848 2.81426,-0.20239 2.79976,-1.68155 0.33377,-2.62496 -0.26363,-5.2252 0.0741,-7.87146 0.01,-2.32739 0.32403,-4.93848 -0.81248,-7.02727 -2.18586,-0.96373 -4.617,0.0437 -6.91102,-0.27908 -13.92999,0.15862 -27.9746,-1.63091 -41.12349,-6.36378 -12.23016,-4.299 -23.94815,-11.41292 -31.52885,-22.146 -4.77999,-6.96416 -7.00616,-15.56157 -6.39454,-23.97215 -0.13677,-122.3624 -0.002,-244.7249 0.0578,-367.087244 0.26755,-4.010489 4.22344,-6.865441 8.06401,-6.850926 7.87475,-1.245324 15.86494,-0.225055 23.79014,-0.576344 31.99335,0.01171 63.99364,-0.08799 95.98242,0.156476 11.83765,2.359128 22.16409,10.516057 27.74998,21.145901 6.98694,11.902049 9.05118,25.763197 11.70644,39.087577 1.61543,7.89949 3.06709,15.84568 4.85788,23.70031 1.27515,1.61972 3.54093,0.62561 5.28385,0.86003 2.86239,-0.0137 5.82041,0.28702 8.61367,-0.32272 0.52404,-1.53126 -0.0324,-3.21971 0.15726,-4.81667 -0.11258,-12.47066 -2.24769,-24.93013 -3.34149,-37.35634 -3.22581,-29.6606 -6.24422,-59.35099 -9.78501,-88.972752 -0.99938,-3.9395521 -4.04745,-8.067349 -8.48588,-8.052811 -4.24794,-0.1191517 -7.58018,2.9675935 -10.29499,5.857634 -4.93055,4.583663 -11.5292,7.446238 -18.30907,7.369142 -8.49809,0.465356 -17.01275,0.06263 -25.51779,0.230866 C 289.66099,18.255559 175.41532,18.317599 61.17274,18.103081 53.841364,17.760681 46.811975,14.263507 41.895762,8.8537239 39.433735,6.6600371 36.405547,4.3980703 32.905476,4.821191 Z" />
  </g>
</svg>
